<svg width="360" height="800" viewBox="0 0 360 800" fill="none" xmlns="http://www.w3.org/2000/svg">
<rect width="360" height="800" fill="url(#paint0_radial_16_2)"/>
<path d="M341.326 245.657C339.591 236.148 333.597 229.284 326.561 229.008C322.842 228.863 318.928 230.582 316.078 236.6C310.984 247.357 316.392 254.791 320.161 258.323C321.982 260.033 323.623 262.089 325.037 264.432C327.583 268.644 332.481 273.878 338.315 265.677C342.544 259.733 342.481 251.99 341.326 245.657Z" fill="#F2F2F2"/>
<path d="M0 310.797C0 310.797 57.5451 254.3 49.9307 145.82C42.3162 37.3391 142.053 129.035 140.929 265.109C139.806 401.183 182.5 187 166.768 419.208C151.037 651.417 191.175 714 227 694.5C262.825 675 264.15 673.392 291.825 598.94C319.5 524.489 360 524.489 360 524.489V800H0V310.797Z" fill="white"/>
<path d="M167.5 387.5C188.368 364.843 213.68 374.98 234.679 397.498C244.246 391.323 250.5 382.966 250.5 371C250.5 301 323 365 317.5 311.5C312 258 360 332.5 360 332.5V524.489L250.5 695.5L149.5 719.5V458.661C131.197 439.689 135.433 430.124 149.5 423.803V406.459C107.702 448.589 149.5 387.5 149.5 387.5V406.459C154.323 401.597 160.259 395.362 167.5 387.5Z" fill="white"/>
<defs>
<radialGradient id="paint0_radial_16_2" cx="0" cy="0" r="1" gradientUnits="userSpaceOnUse" gradientTransform="translate(-2.23659e-05 -433) rotate(75.1082) scale(1258.78 1558)">
<stop offset="0.00268222" stop-color="#D71615"/>
<stop offset="0.894785" stop-color="#401687"/>
</radialGradient>
</defs>
</svg>
